<svg width="53" height="53" viewBox="0 0 53 53" fill="none" xmlns="http://www.w3.org/2000/svg">
<circle cx="26.5" cy="26.5" r="26.5" fill="#F47D31"/>
<g clip-path="url(#clip0)">
<path d="M31.7323 14.5349H22.0708C21.7214 14.5349 21.3863 14.6744 21.1392 14.9229C20.8922 15.1714 20.7534 15.5084 20.7534 15.8599V31.7598C20.7534 32.1113 20.8922 32.4483 21.1392 32.6968C21.3863 32.9452 21.7214 33.0849 22.0708 33.0849H24.7058V32.2015H22.0708C21.9544 32.2015 21.8426 32.155 21.7603 32.0722C21.6779 31.9893 21.6317 31.877 21.6317 31.7598V15.8599C21.6317 15.7427 21.6779 15.6304 21.7603 15.5475C21.8426 15.4647 21.9544 15.4182 22.0708 15.4182H31.7323C31.8487 15.4182 31.9605 15.4647 32.0428 15.5475C32.1252 15.6304 32.1714 15.7427 32.1714 15.8599V31.7598C32.1714 31.877 32.1252 31.9893 32.0428 32.0722C31.9605 32.155 31.8487 32.2015 31.7323 32.2015H29.0973V33.0849H31.7323C32.0817 33.0849 32.4168 32.9452 32.6639 32.6968C32.9109 32.4483 33.0497 32.1113 33.0497 31.7598V15.8599C33.0497 15.5084 32.9109 15.1714 32.6639 14.9229C32.4168 14.6744 32.0817 14.5349 31.7323 14.5349Z" fill="white"/>
<path d="M15.0443 31.3182H19.875V30.4349H15.0443C14.9278 30.4349 14.8161 30.3883 14.7337 30.3055C14.6514 30.2227 14.6051 30.1103 14.6051 29.9932V17.6265C14.6051 17.5094 14.6514 17.397 14.7337 17.3142C14.8161 17.2314 14.9278 17.1849 15.0443 17.1849H19.875V16.3015H15.0443C14.6949 16.3015 14.3598 16.4411 14.1127 16.6896C13.8656 16.9381 13.7268 17.2751 13.7268 17.6265V29.9932C13.7268 30.3446 13.8656 30.6816 14.1127 30.9301C14.3598 31.1786 14.6949 31.3182 15.0443 31.3182Z" fill="white"/>
<path d="M25.1449 16.7432H24.2666V17.6265H25.1449V16.7432Z" fill="white"/>
<path d="M29.5365 16.7432H26.0233V17.6265H29.5365V16.7432Z" fill="white"/>
<path d="M23.8275 18.9515H22.9492V20.7182H23.8275V18.9515Z" fill="white"/>
<path d="M25.5841 18.9515H24.7057V20.7182H25.5841V18.9515Z" fill="white"/>
<path d="M27.3407 18.9515H26.4624V20.7182H27.3407V18.9515Z" fill="white"/>
<path d="M29.0973 18.9515H28.219V20.7182H29.0973V18.9515Z" fill="white"/>
<path d="M30.854 18.9515H29.9756V20.7182H30.854V18.9515Z" fill="white"/>
<path d="M29.5365 22.0432H26.4624V22.9265H29.5365V22.0432Z" fill="white"/>
<path d="M25.5841 29.9932H28.219C28.5684 29.9932 28.9035 29.8536 29.1506 29.6051C29.3977 29.3566 29.5365 29.0196 29.5365 28.6682C29.5365 28.3168 29.3977 27.9798 29.1506 27.7313C28.9035 27.4828 28.5684 27.3432 28.219 27.3432H25.5841C25.2346 27.3432 24.8995 27.4828 24.6525 27.7313C24.4054 27.9798 24.2666 28.3168 24.2666 28.6682C24.2666 29.0196 24.4054 29.3566 24.6525 29.6051C24.8995 29.8536 25.2346 29.9932 25.5841 29.9932ZM25.5841 28.2265H28.219C28.3355 28.2265 28.4472 28.2731 28.5295 28.3559C28.6119 28.4387 28.6582 28.5511 28.6582 28.6682C28.6582 28.7853 28.6119 28.8977 28.5295 28.9805C28.4472 29.0633 28.3355 29.1099 28.219 29.1099H25.5841C25.4676 29.1099 25.3559 29.0633 25.2735 28.9805C25.1912 28.8977 25.1449 28.7853 25.1449 28.6682C25.1449 28.5511 25.1912 28.4387 25.2735 28.3559C25.3559 28.2731 25.4676 28.2265 25.5841 28.2265Z" fill="white"/>
<path d="M19.875 18.0682H18.5576V18.9515H19.875V18.0682Z" fill="white"/>
<path d="M16.3618 20.2766H15.4835V21.6016H16.3618V20.2766Z" fill="white"/>
<path d="M18.1184 20.2766H17.2401V21.6016H18.1184V20.2766Z" fill="white"/>
<path d="M19.875 20.2766H18.9967V21.6016H19.875V20.2766Z" fill="white"/>
<path d="M17.6793 18.0682H16.801V18.9515H17.6793V18.0682Z" fill="white"/>
<path d="M17.2401 29.1098H19.875V28.2265H17.2401C17.1236 28.2265 17.0119 28.18 16.9296 28.0972C16.8472 28.0143 16.8009 27.902 16.8009 27.7848C16.8009 27.6677 16.8472 27.5554 16.9296 27.4726C17.0119 27.3897 17.1236 27.3432 17.2401 27.3432H19.875V26.4598H17.2401C16.8907 26.4598 16.5556 26.5994 16.3085 26.8479C16.0614 27.0964 15.9226 27.4334 15.9226 27.7848C15.9226 28.1363 16.0614 28.4733 16.3085 28.7218C16.5556 28.9702 16.8907 29.1098 17.2401 29.1098Z" fill="white"/>
<path d="M38.7588 16.3015H33.928V17.1849H38.7588C38.8752 17.1849 38.9869 17.2314 39.0693 17.3142C39.1516 17.397 39.1978 17.5094 39.1978 17.6265V29.9932C39.1978 30.1103 39.1516 30.2227 39.0693 30.3055C38.9869 30.3883 38.8752 30.4349 38.7588 30.4349H33.928V31.3182H38.7588C39.1082 31.3182 39.4434 31.1786 39.6903 30.9301C39.9375 30.6816 40.0762 30.3446 40.0762 29.9932V17.6265C40.0762 17.2751 39.9375 16.9381 39.6903 16.6896C39.4434 16.4411 39.1082 16.3015 38.7588 16.3015Z" fill="white"/>
<path d="M37.0021 18.0682H33.928V18.9515H37.0021V18.0682Z" fill="white"/>
<path d="M38.3197 20.2766H37.4413V21.6016H38.3197V20.2766Z" fill="white"/>
<path d="M36.563 20.2766H35.6847V21.6016H36.563V20.2766Z" fill="white"/>
<path d="M34.8064 20.2766H33.928V21.6016H34.8064V20.2766Z" fill="white"/>
<path d="M33.928 26.4598V27.3432H36.563C36.6795 27.3432 36.7912 27.3897 36.8735 27.4726C36.9559 27.5554 37.0021 27.6677 37.0021 27.7848C37.0021 27.902 36.9559 28.0143 36.8735 28.0972C36.7912 28.18 36.6795 28.2265 36.563 28.2265H33.928V29.1098H36.563C36.9124 29.1098 37.2475 28.9702 37.4946 28.7218C37.7416 28.4733 37.8805 28.1363 37.8805 27.7848C37.8805 27.4334 37.7416 27.0964 37.4946 26.8479C37.2475 26.5994 36.9124 26.4598 36.563 26.4598H33.928Z" fill="white"/>
<path d="M33.4889 40.5933V35.7821C33.4929 35.4627 33.3851 35.152 33.1844 34.9044C32.9838 34.6568 32.7029 34.488 32.391 34.4275C32.2017 34.3961 32.0078 34.4064 31.8229 34.4578C31.6379 34.5092 31.4663 34.6005 31.3199 34.7252C31.3111 34.7322 31.3024 34.7398 31.294 34.7477C31.0527 34.5299 30.7399 34.4094 30.4157 34.4094C30.0915 34.4094 29.7787 34.5299 29.5374 34.7477C29.3588 34.5937 29.1437 34.4886 28.9129 34.4426C28.6821 34.3965 28.4434 34.4111 28.2199 34.4849V32.2488C28.2239 31.9293 28.1161 31.6187 27.9154 31.371C27.7148 31.1234 27.4339 30.9546 27.122 30.8942C26.933 30.8619 26.7392 30.8715 26.5542 30.9224C26.3692 30.9732 26.1975 31.0641 26.0511 31.1886C25.9046 31.313 25.787 31.4682 25.7063 31.6431C25.6256 31.8181 25.5839 32.0087 25.5841 32.2015V37.6048L24.4186 36.9017C24.2436 36.7954 24.0447 36.7355 23.8404 36.7278C23.6361 36.7201 23.4332 36.7647 23.2508 36.8576L23.181 36.8924C22.9938 36.9867 22.8339 37.128 22.717 37.3027C22.6001 37.4774 22.5301 37.6796 22.5137 37.8895C22.4974 38.0994 22.5353 38.3101 22.6237 38.5009C22.7121 38.6918 22.8482 38.8564 23.0185 38.9789L25.7681 40.9535C25.8426 41.0069 25.9318 41.0354 26.0233 41.0348H33.0498C33.1662 41.0348 33.2779 40.9883 33.3603 40.9055C33.4426 40.8226 33.4889 40.7102 33.4889 40.5933ZM32.6106 40.1515H26.1638L23.5288 38.259C23.4816 38.2251 23.4439 38.1795 23.4194 38.1267C23.3948 38.0739 23.3843 38.0156 23.3887 37.9574C23.3931 37.8993 23.4124 37.8433 23.4446 37.7948C23.4768 37.7464 23.521 37.7071 23.5727 37.6808L23.6426 37.6464C23.693 37.6208 23.7491 37.6085 23.8056 37.6107C23.862 37.6128 23.917 37.6294 23.9654 37.6587L25.7962 38.7629C25.8628 38.8034 25.9389 38.8253 26.0167 38.8265C26.0946 38.8276 26.1713 38.808 26.2391 38.7695C26.3068 38.731 26.3632 38.6752 26.4025 38.6076C26.4417 38.54 26.4624 38.4631 26.4624 38.3848V32.2015C26.4624 32.1369 26.4764 32.0732 26.5035 32.0146C26.5307 31.9561 26.5702 31.9043 26.6194 31.8628C26.6686 31.8214 26.7263 31.7912 26.7883 31.7746C26.8503 31.758 26.9152 31.7552 26.9784 31.7665C27.0848 31.7926 27.1789 31.8549 27.2449 31.9428C27.3109 32.0306 27.3448 32.1387 27.3407 32.2488V35.7348C27.3407 35.852 27.387 35.9643 27.4693 36.0472C27.5517 36.13 27.6634 36.1765 27.7799 36.1765C27.8963 36.1765 28.008 36.13 28.0904 36.0472C28.1728 35.9643 28.219 35.852 28.219 35.7348C28.219 35.6177 28.2653 35.5054 28.3476 35.4225C28.43 35.3397 28.5417 35.2932 28.6582 35.2932C28.7747 35.2932 28.8864 35.3397 28.9687 35.4225C29.0511 35.5054 29.0973 35.6177 29.0973 35.7348C29.0973 35.852 29.1436 35.9643 29.226 36.0472C29.3083 36.13 29.42 36.1765 29.5365 36.1765C29.653 36.1765 29.7647 36.13 29.847 36.0472C29.9294 35.9643 29.9756 35.852 29.9756 35.7348C29.9756 35.6177 30.0219 35.5054 30.1043 35.4225C30.1867 35.3397 30.2983 35.2932 30.4148 35.2932C30.5313 35.2932 30.643 35.3397 30.7253 35.4225C30.8077 35.5054 30.854 35.6177 30.854 35.7348C30.854 35.852 30.9002 35.9643 30.9826 36.0472C31.065 36.13 31.1767 36.1765 31.2931 36.1765C31.4096 36.1765 31.5213 36.13 31.6037 36.0472C31.686 35.9643 31.7323 35.852 31.7323 35.7348C31.7322 35.6703 31.7463 35.6065 31.7734 35.548C31.8006 35.4895 31.8401 35.4377 31.8893 35.3962C31.9385 35.3547 31.9962 35.3246 32.0582 35.3079C32.1202 35.2913 32.1851 35.2885 32.2483 35.2998C32.3547 35.326 32.4488 35.3882 32.5148 35.4761C32.5808 35.564 32.6146 35.672 32.6106 35.7821V40.1515Z" fill="white"/>
<path d="M25.5841 22.0432H24.2666V22.9265H25.5841V22.0432Z" fill="white"/>
<path d="M29.5365 23.8099H24.2666V24.6932H29.5365V23.8099Z" fill="white"/>
<path d="M28.6582 25.5765H25.1449V26.4599H28.6582V25.5765Z" fill="white"/>
<path d="M19.875 22.9265H17.2401V23.8098H19.875V22.9265Z" fill="white"/>
<path d="M19.875 24.6932H18.1184V25.5765H19.875V24.6932Z" fill="white"/>
<path d="M36.1238 22.9265H33.928V23.8098H36.1238V22.9265Z" fill="white"/>
<path d="M35.2455 24.6932H33.928V25.5765H35.2455V24.6932Z" fill="white"/>
<path d="M12.9704 49.8716V49.3074H12.8671V49.1697H12.9704V49.11C12.9704 49.0313 12.9926 48.9705 13.0371 48.9272C13.082 48.8834 13.1446 48.8616 13.225 48.8616C13.2506 48.8616 13.282 48.8661 13.3192 48.8746L13.3173 49.0199C13.3019 49.0159 13.2831 49.0141 13.2609 49.0141C13.1912 49.0141 13.1564 49.047 13.1564 49.1134V49.1697H13.2942V49.3074H13.1564V49.8716H12.9704ZM13.7803 49.3456C13.7551 49.3422 13.7329 49.3403 13.7136 49.3403C13.6435 49.3403 13.5976 49.3642 13.5758 49.4123V49.8716H13.3904V49.1697H13.5655L13.5706 49.2534C13.6078 49.1889 13.6593 49.1567 13.7252 49.1567C13.7457 49.1567 13.7649 49.1597 13.7829 49.1652L13.7803 49.3456ZM13.8182 49.5141C13.8182 49.4444 13.8314 49.3825 13.8579 49.3281C13.8844 49.2736 13.9225 49.2314 13.9721 49.2016C14.0221 49.1716 14.08 49.1567 14.1459 49.1567C14.2395 49.1567 14.3158 49.1857 14.3748 49.2436C14.4342 49.3015 14.4674 49.3804 14.4742 49.4798L14.4755 49.5279C14.4755 49.6355 14.4458 49.7218 14.3863 49.7872C14.3269 49.852 14.2472 49.8844 14.1471 49.8844C14.0471 49.8844 13.9672 49.852 13.9073 49.7872C13.8479 49.7223 13.8182 49.6341 13.8182 49.5226V49.5141ZM14.0035 49.5279C14.0035 49.5943 14.0159 49.6453 14.0407 49.6809C14.0655 49.716 14.101 49.7335 14.1471 49.7335C14.192 49.7335 14.2271 49.716 14.2523 49.6814C14.2775 49.6463 14.2902 49.5906 14.2902 49.5141C14.2902 49.449 14.2775 49.3982 14.2523 49.3624C14.2271 49.3265 14.1916 49.3084 14.1459 49.3084C14.1005 49.3084 14.0655 49.3265 14.0407 49.3624C14.0159 49.3977 14.0035 49.4529 14.0035 49.5279ZM14.7634 49.1697L14.7692 49.2481C14.8184 49.1873 14.8848 49.1567 14.9686 49.1567C15.058 49.1567 15.1193 49.1923 15.1527 49.2638C15.2014 49.1923 15.2709 49.1567 15.3611 49.1567C15.4364 49.1567 15.4924 49.179 15.5291 49.2237C15.5659 49.2678 15.5843 49.3342 15.5843 49.4235V49.8716H15.3983V49.424C15.3983 49.3841 15.3906 49.3552 15.3752 49.3371C15.3598 49.3185 15.3327 49.3092 15.2938 49.3092C15.2382 49.3092 15.1997 49.3361 15.1783 49.3897L15.179 49.8716H14.9937V49.4245C14.9937 49.3839 14.9857 49.3546 14.9699 49.3363C14.9541 49.3183 14.9272 49.3092 14.8891 49.3092C14.8365 49.3092 14.7985 49.3313 14.775 49.3754V49.8716H14.5896V49.1697H14.7634ZM16.2762 48.9973V49.1697H16.3949V49.3074H16.2762V49.6575C16.2762 49.6835 16.2811 49.7021 16.291 49.7133C16.3008 49.7245 16.3196 49.73 16.3474 49.73C16.3679 49.73 16.3861 49.7287 16.4019 49.7255V49.8677C16.3656 49.8788 16.3282 49.8844 16.2897 49.8844C16.1597 49.8844 16.0935 49.8182 16.0909 49.6854V49.3074H15.9896V49.1697H16.0909V48.9973H16.2762ZM16.679 49.2463C16.7281 49.1865 16.7899 49.1567 16.8643 49.1567C17.0148 49.1567 17.0911 49.2452 17.0933 49.4221V49.8716H16.9079V49.4272C16.9079 49.3871 16.8993 49.3573 16.8822 49.3384C16.8651 49.3188 16.8367 49.3092 16.797 49.3092C16.7427 49.3092 16.7033 49.3305 16.679 49.3727V49.8716H16.4936V48.8754H16.679V49.2463ZM17.5524 49.8844C17.4506 49.8844 17.3677 49.853 17.3036 49.7898C17.2399 49.7266 17.208 49.6426 17.208 49.5374V49.5194C17.208 49.449 17.2215 49.386 17.2484 49.3305C17.2754 49.2747 17.3134 49.2319 17.3626 49.2022C17.4122 49.1719 17.4686 49.1567 17.5319 49.1567C17.6268 49.1567 17.7014 49.187 17.7557 49.2476C17.8104 49.3082 17.8378 49.394 17.8378 49.505V49.5815H17.3959C17.4019 49.6275 17.4199 49.6641 17.4498 49.6918C17.4801 49.7194 17.5184 49.7335 17.5646 49.7335C17.636 49.7335 17.6918 49.7072 17.732 49.6549L17.823 49.7579C17.7952 49.7978 17.7576 49.8289 17.7102 49.8514C17.6627 49.8735 17.6101 49.8844 17.5524 49.8844ZM17.5312 49.3084C17.4945 49.3084 17.4645 49.3212 17.4415 49.3461C17.4188 49.3711 17.4043 49.407 17.3978 49.4537H17.6557V49.4389C17.6548 49.3974 17.6437 49.3653 17.6223 49.343C17.6009 49.3201 17.5706 49.3084 17.5312 49.3084ZM19.0421 49.8716H18.8497L18.4752 49.2502V49.8716H18.2828V48.9272H18.4752L18.8504 49.5499V48.9272H19.0421V49.8716ZM19.1691 49.5141C19.1691 49.4444 19.1824 49.3825 19.2089 49.3281C19.2354 49.2736 19.2734 49.2314 19.323 49.2016C19.373 49.1716 19.431 49.1567 19.4968 49.1567C19.5904 49.1567 19.6667 49.1857 19.7257 49.2436C19.7852 49.3015 19.8183 49.3804 19.8252 49.4798L19.8264 49.5279C19.8264 49.6355 19.7967 49.7218 19.7373 49.7872C19.6779 49.852 19.5981 49.8844 19.4981 49.8844C19.3981 49.8844 19.3181 49.852 19.2583 49.7872C19.1988 49.7223 19.1691 49.6341 19.1691 49.5226V49.5141ZM19.3545 49.5279C19.3545 49.5943 19.3668 49.6453 19.3916 49.6809C19.4164 49.716 19.4519 49.7335 19.4981 49.7335C19.543 49.7335 19.578 49.716 19.6033 49.6814C19.6285 49.6463 19.6411 49.5906 19.6411 49.5141C19.6411 49.449 19.6285 49.3982 19.6033 49.3624C19.578 49.3265 19.5426 49.3084 19.4968 49.3084C19.4515 49.3084 19.4164 49.3265 19.3916 49.3624C19.3668 49.3977 19.3545 49.4529 19.3545 49.5279ZM20.3561 49.8002C20.3104 49.8565 20.2471 49.8844 20.1663 49.8844C20.0919 49.8844 20.0351 49.8629 19.9957 49.8196C19.9568 49.7763 19.937 49.713 19.9361 49.6296V49.1697H20.1214V49.623C20.1214 49.6963 20.1543 49.7327 20.2202 49.7327C20.283 49.7327 20.3262 49.7106 20.3497 49.6665V49.1697H20.5357V49.8716H20.3613L20.3561 49.8002ZM20.8461 49.1697L20.8519 49.2508C20.9015 49.1881 20.9679 49.1567 21.0513 49.1567C21.1248 49.1567 21.1796 49.1785 21.2155 49.2223C21.2514 49.2659 21.2698 49.3313 21.2706 49.4181V49.8716H21.0853V49.4227C21.0853 49.3828 21.0767 49.3541 21.0596 49.3363C21.0425 49.3183 21.0141 49.3092 20.9744 49.3092C20.9222 49.3092 20.8831 49.3315 20.857 49.3767V49.8716H20.6717V49.1697H20.8461ZM21.9433 49.5388V49.8716H21.751V48.9272H22.1152C22.1853 48.9272 22.2469 48.9402 22.2999 48.966C22.3533 48.992 22.3944 49.0289 22.423 49.077C22.4517 49.1246 22.466 49.1788 22.466 49.2399C22.466 49.3323 22.4346 49.4054 22.3717 49.4591C22.3093 49.5122 22.2227 49.5388 22.112 49.5388H21.9433ZM21.9433 49.3812H22.1152C22.1661 49.3812 22.2048 49.369 22.2313 49.3448C22.2582 49.3206 22.2717 49.2861 22.2717 49.2409C22.2717 49.1947 22.2582 49.1575 22.2313 49.1288C22.2044 49.1004 22.1672 49.0855 22.1197 49.0847H21.9433V49.3812ZM22.9765 49.3456C22.9512 49.3422 22.929 49.3403 22.9098 49.3403C22.8397 49.3403 22.7937 49.3642 22.7719 49.4123V49.8716H22.5866V49.1697H22.7616L22.7668 49.2534C22.804 49.1889 22.8555 49.1567 22.9213 49.1567C22.9418 49.1567 22.9611 49.1597 22.979 49.1652L22.9765 49.3456ZM23.0143 49.5141C23.0143 49.4444 23.0275 49.3825 23.054 49.3281C23.0806 49.2736 23.1186 49.2314 23.1682 49.2016C23.2182 49.1716 23.2762 49.1567 23.342 49.1567C23.4356 49.1567 23.5119 49.1857 23.5709 49.2436C23.6304 49.3015 23.6635 49.3804 23.6703 49.4798L23.6716 49.5279C23.6716 49.6355 23.6419 49.7218 23.5825 49.7872C23.5231 49.852 23.4433 49.8844 23.3433 49.8844C23.2433 49.8844 23.1633 49.852 23.1034 49.7872C23.044 49.7223 23.0143 49.6341 23.0143 49.5226V49.5141ZM23.1996 49.5279C23.1996 49.5943 23.212 49.6453 23.2368 49.6809C23.2616 49.716 23.2971 49.7335 23.3433 49.7335C23.3882 49.7335 23.4232 49.716 23.4485 49.6814C23.4737 49.6463 23.4863 49.5906 23.4863 49.5141C23.4863 49.449 23.4737 49.3982 23.4485 49.3624C23.4232 49.3265 23.3877 49.3084 23.342 49.3084C23.2967 49.3084 23.2616 49.3265 23.2368 49.3624C23.212 49.3977 23.1996 49.4529 23.1996 49.5279ZM23.982 49.1697V49.9099C23.982 49.9872 23.9617 50.0472 23.9211 50.09C23.8805 50.1333 23.8219 50.1548 23.7454 50.1548C23.7133 50.1548 23.6827 50.1514 23.6537 50.1439V49.9954C23.6759 49.9992 23.6953 50.0013 23.712 50.0013C23.768 50.0013 23.796 49.9713 23.796 49.911V49.1697H23.982ZM23.7813 48.988C23.7813 48.9601 23.7905 48.9368 23.8089 48.9187C23.8277 48.9006 23.8531 48.8916 23.8852 48.8916C23.9172 48.8916 23.9425 48.9006 23.9608 48.9187C23.9797 48.9368 23.9891 48.9601 23.9891 48.988C23.9891 49.0167 23.9794 49.0401 23.9602 49.0582C23.9414 49.0762 23.9164 49.0855 23.8852 49.0855C23.854 49.0855 23.8288 49.0762 23.8095 49.0582C23.7907 49.0401 23.7813 49.0167 23.7813 48.988ZM24.4463 49.8844C24.3446 49.8844 24.2616 49.853 24.1975 49.7898C24.1338 49.7266 24.1019 49.6426 24.1019 49.5374V49.5194C24.1019 49.449 24.1154 49.386 24.1423 49.3305C24.1693 49.2747 24.2073 49.2319 24.2565 49.2022C24.3061 49.1719 24.3625 49.1567 24.4258 49.1567C24.5207 49.1567 24.5953 49.187 24.6496 49.2476C24.7043 49.3082 24.7317 49.394 24.7317 49.505V49.5815H24.2898C24.2958 49.6275 24.3138 49.6641 24.3437 49.6918C24.3741 49.7194 24.4123 49.7335 24.4585 49.7335C24.5299 49.7335 24.5857 49.7072 24.6259 49.6549L24.7169 49.7579C24.6891 49.7978 24.6515 49.8289 24.6041 49.8514C24.5566 49.8735 24.504 49.8844 24.4463 49.8844ZM24.4251 49.3084C24.3884 49.3084 24.3585 49.3212 24.3354 49.3461C24.3127 49.3711 24.2982 49.407 24.2918 49.4537H24.5496V49.4389C24.5487 49.3974 24.5376 49.3653 24.5162 49.343C24.4948 49.3201 24.4645 49.3084 24.4251 49.3084ZM25.1261 49.7335C25.1603 49.7335 25.1881 49.7239 25.2094 49.7048C25.2308 49.6857 25.2419 49.6604 25.2428 49.6288H25.4166C25.4162 49.6764 25.4033 49.7202 25.3781 49.7601C25.3529 49.7994 25.3182 49.8299 25.2742 49.852C25.2306 49.8738 25.1823 49.8844 25.1293 49.8844C25.0301 49.8844 24.9519 49.8528 24.8946 49.789C24.8373 49.7253 24.8086 49.6371 24.8086 49.5244V49.5122C24.8086 49.4041 24.8371 49.3177 24.8939 49.2534C24.9508 49.1889 25.0288 49.1567 25.128 49.1567C25.2148 49.1567 25.2843 49.1817 25.3364 49.2319C25.389 49.2816 25.4157 49.348 25.4166 49.4312H25.2428C25.2419 49.3948 25.2308 49.3653 25.2094 49.343C25.1881 49.3201 25.1598 49.3084 25.1248 49.3084C25.0816 49.3084 25.0489 49.3246 25.0267 49.3565C25.0049 49.3881 24.994 49.4397 24.994 49.5109V49.5303C24.994 49.6025 25.0049 49.6543 25.0267 49.6859C25.0485 49.7176 25.0816 49.7335 25.1261 49.7335ZM25.7443 48.9973V49.1697H25.8629V49.3074H25.7443V49.6575C25.7443 49.6835 25.7492 49.7021 25.759 49.7133C25.7689 49.7245 25.7877 49.73 25.8155 49.73C25.836 49.73 25.8541 49.7287 25.87 49.7255V49.8677C25.8336 49.8788 25.7962 49.8844 25.7577 49.8844C25.6278 49.8844 25.5615 49.8182 25.559 49.6854V49.3074H25.4576V49.1697H25.559V48.9973H25.7443Z" fill="white"/>
</g>
<defs>
<clipPath id="clip0">
<rect width="28.1061" height="35.3333" fill="white" transform="translate(12.8485 13.6516)"/>
</clipPath>
</defs>
</svg>
