<svg width="53" height="53" viewBox="0 0 53 53" fill="none" xmlns="http://www.w3.org/2000/svg">
<circle cx="26.5" cy="26.5" r="26.5" fill="#F47D31"/>
<g clip-path="url(#clip0)">
<path d="M23.8927 38.9928H23.4424C23.1122 38.9928 22.842 38.7253 22.842 38.3983C22.842 38.0714 23.1122 37.8039 23.4424 37.8039H23.8927C24.2229 37.8039 24.4931 38.0714 24.4931 38.3983C24.4931 38.7253 24.2259 38.9928 23.8927 38.9928Z" fill="white"/>
<path d="M21.1008 38.9928H18.3691C18.0388 38.9928 17.7687 38.7253 17.7687 38.3983C17.7687 38.0714 18.0388 37.8039 18.3691 37.8039H21.1008C21.4311 37.8039 21.7012 38.0714 21.7012 38.3983C21.7012 38.7253 21.4341 38.9928 21.1008 38.9928Z" fill="white"/>
<path d="M26.6035 36.3118H14.2324C13.4699 36.3118 12.8485 35.6965 12.8485 34.9416V16.7158C12.8485 15.9609 13.4699 15.3456 14.2324 15.3456H17.7207C18.0509 15.3456 18.3211 15.6131 18.3211 15.9401V17.0725H18.9455V15.9401C18.9455 15.6131 19.2157 15.3456 19.5458 15.3456H30.5961C30.9263 15.3456 31.1964 15.6131 31.1964 15.9401V17.0725H31.8209V15.9401C31.8209 15.6131 32.091 15.3456 32.4212 15.3456H35.9095C36.672 15.3456 37.2934 15.9609 37.2934 16.7158V28.8128C37.2934 29.0506 37.1493 29.2676 36.9272 29.3597C36.705 29.4518 36.4499 29.4073 36.2758 29.2408C35.2191 28.2362 33.8292 27.6834 32.3612 27.6834C31.0613 27.6834 29.7945 28.1292 28.7889 28.9406C28.6718 29.0357 28.5577 29.1338 28.4497 29.2379C28.1975 29.4786 27.9663 29.7401 27.7652 30.0195C27.0718 30.9736 26.7085 32.1031 26.7085 33.2801C26.7085 34.044 26.8616 34.781 27.1588 35.4766C27.2369 35.6608 27.2188 35.8719 27.1078 36.0383C26.9937 36.2107 26.8046 36.3118 26.6035 36.3118ZM14.2324 16.5345C14.1333 16.5345 14.0493 16.6148 14.0493 16.7158V34.9416C14.0493 35.0396 14.1303 35.1229 14.2324 35.1229H25.7569C25.5888 34.5284 25.5047 33.9132 25.5047 33.286C25.5047 31.8564 25.949 30.4892 26.7866 29.33C27.0327 28.9912 27.3119 28.6731 27.6151 28.3848C27.7472 28.26 27.8853 28.1381 28.0294 28.0222C29.2482 27.0384 30.7852 26.4975 32.3612 26.4975C33.7001 26.4975 34.9879 26.8779 36.0896 27.5883V16.7158C36.0896 16.6178 36.0086 16.5345 35.9065 16.5345H33.0186V17.5124C33.0186 17.9255 32.6794 18.2614 32.2621 18.2614H30.7521C30.3349 18.2614 29.9957 17.9255 29.9957 17.5124V16.5345H20.1463V17.5124C20.1463 17.9255 19.807 18.2614 19.3898 18.2614H17.8798C17.4625 18.2614 17.1233 17.9255 17.1233 17.5124V16.5345H14.2324Z" fill="white"/>
<path d="M36.687 20.7492H13.4489C13.1187 20.7492 12.8485 20.4817 12.8485 20.1547C12.8485 19.8278 13.1187 19.5603 13.4489 19.5603H36.687C37.0172 19.5603 37.2874 19.8278 37.2874 20.1547C37.2874 20.4817 37.0202 20.7492 36.687 20.7492Z" fill="white"/>
<path d="M18.6933 25.2491H16.9581C16.5018 25.2491 16.1326 24.8806 16.1326 24.4318V22.9665C16.1326 22.5147 16.5048 22.1491 16.9581 22.1491H18.6933C19.1496 22.1491 19.5188 22.5177 19.5188 22.9665V24.4318C19.5188 24.8836 19.1496 25.2491 18.6933 25.2491ZM17.3304 24.0603H18.318V23.335H17.3304V24.0603Z" fill="white"/>
<path d="M23.4364 25.2491H21.7013C21.245 25.2491 20.8757 24.8806 20.8757 24.4318V22.9665C20.8757 22.5147 21.248 22.1491 21.7013 22.1491H23.4364C23.8927 22.1491 24.2619 22.5177 24.2619 22.9665V24.4318C24.2649 24.8836 23.8927 25.2491 23.4364 25.2491ZM22.0765 24.0603H23.0642V23.335H22.0765V24.0603Z" fill="white"/>
<path d="M28.1825 25.2491H26.4474C25.9911 25.2491 25.6218 24.8806 25.6218 24.4318V22.9665C25.6218 22.5147 25.9941 22.1491 26.4474 22.1491H28.1825C28.6388 22.1491 29.008 22.5177 29.008 22.9665V24.4318C29.008 24.8836 28.6358 25.2491 28.1825 25.2491ZM26.8196 24.0603H27.8072V23.335H26.8196V24.0603Z" fill="white"/>
<path d="M18.6933 29.4073H16.9581C16.5018 29.4073 16.1326 29.0387 16.1326 28.5899V27.1246C16.1326 26.6728 16.5048 26.3073 16.9581 26.3073H18.6933C19.1496 26.3073 19.5188 26.6758 19.5188 27.1246V28.5899C19.5188 29.0417 19.1496 29.4073 18.6933 29.4073ZM17.3304 28.2184H18.318V27.4932H17.3304V28.2184Z" fill="white"/>
<path d="M23.4364 29.4073H21.7013C21.245 29.4073 20.8757 29.0387 20.8757 28.5899V27.1246C20.8757 26.6728 21.248 26.3073 21.7013 26.3073H23.4364C23.8927 26.3073 24.2619 26.6758 24.2619 27.1246V28.5899C24.2649 29.0417 23.8927 29.4073 23.4364 29.4073ZM22.0765 28.2184H23.0642V27.4932H22.0765V28.2184Z" fill="white"/>
<path d="M28.0294 29.4073H26.4444C25.9881 29.4073 25.6188 29.0417 25.6188 28.5899V27.1246C25.6188 26.6728 25.9911 26.3073 26.4444 26.3073H28.1795C28.6358 26.3073 29.0051 26.6758 29.0051 27.1246V28.4829C29.0051 28.6613 28.924 28.8307 28.7829 28.9436C28.6658 29.0387 28.5518 29.1368 28.4437 29.2409C28.3356 29.3478 28.1855 29.4073 28.0294 29.4073ZM26.8196 28.2184H27.7953C27.7983 28.2154 27.8043 28.2124 27.8073 28.2065V27.4932H26.8196V28.2184Z" fill="white"/>
<path d="M18.6933 33.5654H16.9581C16.5018 33.5654 16.1326 33.1969 16.1326 32.7481V31.2827C16.1326 30.831 16.5048 30.4654 16.9581 30.4654H18.6933C19.1496 30.4654 19.5188 30.834 19.5188 31.2827V32.7481C19.5188 33.1999 19.1496 33.5654 18.6933 33.5654ZM17.3304 32.3765H18.318V31.6513H17.3304V32.3765Z" fill="white"/>
<path d="M23.4364 33.5654H21.7013C21.245 33.5654 20.8757 33.1969 20.8757 32.7481V31.2827C20.8757 30.831 21.248 30.4654 21.7013 30.4654H23.4364C23.8927 30.4654 24.2619 30.834 24.2619 31.2827V32.7481C24.2649 33.1999 23.8927 33.5654 23.4364 33.5654ZM22.0765 32.3765H23.0642V31.6513H22.0765V32.3765Z" fill="white"/>
<path d="M32.9256 25.2194H31.1904C30.7341 25.2194 30.3649 24.8509 30.3649 24.4021V22.9367C30.3649 22.485 30.7371 22.1194 31.1904 22.1194H32.9256C33.3819 22.1194 33.7511 22.4879 33.7511 22.9367V24.4021C33.7511 24.8509 33.3819 25.2194 32.9256 25.2194ZM31.5627 24.0305H32.5503V23.3053H31.5627V24.0305Z" fill="white"/>
<path d="M19.3867 18.2614H17.8768C17.4595 18.2614 17.1203 17.9255 17.1203 17.5124V14.4005C17.1203 13.9874 17.4595 13.6515 17.8768 13.6515H19.3867C19.804 13.6515 20.1432 13.9874 20.1432 14.4005V17.5124C20.1462 17.9255 19.804 18.2614 19.3867 18.2614ZM18.321 17.0725H18.9455V14.8374H18.321V17.0725Z" fill="white"/>
<path d="M32.2621 18.2614H30.7522C30.3349 18.2614 29.9957 17.9255 29.9957 17.5124V14.4005C29.9957 13.9874 30.3349 13.6515 30.7522 13.6515H32.2621C32.6794 13.6515 33.0186 13.9874 33.0186 14.4005V17.5124C33.0186 17.9255 32.6794 18.2614 32.2621 18.2614ZM31.1934 17.0725H31.8179V14.8374H31.1934V17.0725Z" fill="white"/>
<path d="M32.3582 40.0746C31.7848 40.0746 31.2114 40.0033 30.6591 39.8636C29.6414 39.608 28.6838 39.1117 27.8853 38.431C27.0928 37.7563 26.4594 36.8973 26.0511 35.9492C25.6879 35.1051 25.5017 34.2104 25.5017 33.2861C25.5017 31.8564 25.946 30.4892 26.7836 29.33C27.0297 28.9912 27.3089 28.6732 27.6121 28.3849C27.7442 28.26 27.8823 28.1382 28.0264 28.0222C29.2452 27.0384 30.7822 26.4975 32.3582 26.4975C34.1353 26.4975 35.8194 27.1662 37.1013 28.3849C37.7617 29.012 38.2811 29.7491 38.6473 30.5754C39.0255 31.4314 39.2147 32.3439 39.2147 33.2861C39.2147 35.0991 38.5002 36.8052 37.2063 38.0862C35.9125 39.3673 34.1894 40.0746 32.3582 40.0746ZM32.3582 27.6864C31.0583 27.6864 29.7915 28.1322 28.7859 28.9437C28.6688 29.0388 28.5547 29.1368 28.4466 29.2409C28.1945 29.4816 27.9633 29.7432 27.7622 30.0226C27.0687 30.9767 26.7055 32.1061 26.7055 33.2831C26.7055 34.047 26.8586 34.7841 27.1558 35.4796C27.8433 37.0757 29.2662 38.2824 30.9593 38.7104C31.4156 38.8263 31.8869 38.8828 32.3612 38.8828C35.4802 38.8828 38.0169 36.3712 38.0169 33.2831C38.0169 31.7435 37.3985 30.3049 36.2728 29.2409C35.2161 28.2392 33.8261 27.6864 32.3582 27.6864Z" fill="white"/>
<path d="M34.5677 36.0651C34.4146 36.0651 34.2615 36.0056 34.1444 35.8897L31.9349 33.7022C31.8209 33.5892 31.7578 33.4406 31.7578 33.2831V30.611C31.7578 30.2841 32.028 30.0166 32.3582 30.0166C32.6884 30.0166 32.9586 30.2841 32.9586 30.611V33.0364L34.9909 35.0486C35.2251 35.2804 35.2251 35.6579 34.9909 35.8897C34.8739 36.0086 34.7208 36.0651 34.5677 36.0651Z" fill="white"/>
<path d="M23.8927 38.9928H23.4424C23.1122 38.9928 22.842 38.7253 22.842 38.3983C22.842 38.0714 23.1122 37.8039 23.4424 37.8039H23.8927C24.2229 37.8039 24.4931 38.0714 24.4931 38.3983C24.4931 38.7253 24.2259 38.9928 23.8927 38.9928Z" fill="white"/>
<path d="M21.1008 38.9928H18.3691C18.0388 38.9928 17.7687 38.7253 17.7687 38.3983C17.7687 38.0714 18.0388 37.8039 18.3691 37.8039H21.1008C21.4311 37.8039 21.7012 38.0714 21.7012 38.3983C21.7012 38.7253 21.4341 38.9928 21.1008 38.9928Z" fill="white"/>
</g>
<defs>
<clipPath id="clip0">
<rect width="26.5" height="26.5" fill="white" transform="translate(12.8485 13.6515)"/>
</clipPath>
</defs>
</svg>
