<svg width="53" height="53" viewBox="0 0 53 53" fill="none" xmlns="http://www.w3.org/2000/svg">
<circle cx="26.5" cy="26.5" r="26.5" fill="#F47D31"/>
<g clip-path="url(#clip0)">
<path d="M18.09 35.5284C18.2946 35.2875 18.5333 34.9777 18.6015 34.9089C18.6015 34.8745 18.6356 34.8401 18.6697 34.8401C18.7379 34.7712 18.8743 34.668 19.1471 34.7024L20.5112 34.8745L19.7609 33.6355C19.6927 33.6011 19.6927 33.5323 19.6927 33.4634C19.6927 33.429 19.6927 33.3946 19.6927 33.3602V33.3258V33.2914C19.6927 33.2914 19.6927 33.2914 19.6927 33.257C19.6927 33.257 19.6927 33.257 19.6927 33.2225V33.1881L20.2725 31.8459L18.8743 32.1212C18.6697 32.1557 18.5333 32.1212 18.4651 32.0868C18.431 32.0868 18.431 32.0524 18.3969 32.0524L17.3056 31.0888C17.3056 31.0888 17.2374 32.0868 17.2033 32.1901C17.2033 32.5686 17.1692 32.8095 16.9646 32.9128L16.3167 33.2914L15.6688 33.6699C15.6688 33.6699 15.9075 33.7732 16.2144 33.8764C16.5895 34.0141 17.0328 34.2206 17.101 34.255C17.2374 34.3583 17.2715 34.4271 17.3056 34.4959L17.3397 34.5992C17.3738 34.8057 17.6126 35.9758 17.6126 35.9758C17.6126 35.9758 17.8854 35.7693 18.09 35.5284ZM30.1959 22.8634C30.0254 23.1388 29.889 23.4485 29.9572 23.7927C29.9572 24.0336 30.0595 24.2401 30.1959 24.4121C30.7074 24.7907 31.1849 25.2037 31.6282 25.6855C32.1397 25.066 32.6512 24.4121 32.7535 24.2745C32.8558 24.1368 33.0263 23.9992 33.2309 23.9303C33.265 23.9303 33.2991 23.8959 33.3332 23.8959C33.4356 23.8959 33.5038 23.8959 33.6061 23.9303C33.9471 24.0336 34.0153 24.3089 34.0835 24.481L34.1517 24.7219L34.8678 27.716L37.9369 28.9894C38.2779 29.1271 38.4484 29.4024 38.4143 29.7121C38.4143 29.8842 38.3461 30.0907 38.0051 30.2972L35.2088 32.018L35.1406 33.1537C35.3111 34.0141 35.3793 34.8745 35.3793 35.7349C35.3793 37.1115 34.8337 38.2816 33.913 39.2453C32.2761 40.8284 29.0024 41.5511 25.7628 41.5511C22.5231 41.5511 19.2494 40.8628 17.6467 39.2453C16.7259 38.316 16.1803 37.1459 16.1803 35.7349C16.1803 35.5284 16.1803 35.3563 16.1803 35.1498L13.8955 34.2206C13.7591 34.1518 13.6227 33.9797 13.6568 33.7388C13.6568 33.5667 13.725 33.3946 13.8614 33.3602C14.3047 33.0849 16.078 32.0868 16.078 32.0868C16.078 32.0868 16.2144 30.2628 16.2826 29.4712C16.3167 29.3336 16.4531 29.1959 16.6236 29.1271C16.7941 29.0583 16.9987 29.1271 17.1351 29.2303C17.2374 29.3336 17.3738 29.4712 17.5444 29.5745C17.8854 28.7829 18.2946 28.0258 18.7379 27.3375C19.4881 26.1329 20.4089 25.2037 21.3978 24.481C21.5683 24.2745 21.6365 24.1024 21.6365 23.8615C21.7047 23.5173 21.5683 23.2076 21.3978 22.9323C20.4771 21.8998 19.8291 20.4544 19.8291 18.8712C19.8291 15.5673 22.489 12.8485 25.7969 12.8485H25.831C25.8651 12.8485 25.8651 12.8485 25.8992 12.8485C29.207 12.8485 31.8669 15.5673 31.8669 18.8712C31.7646 20.3855 31.1508 21.831 30.1959 22.8634ZM30.0254 26.8212C28.6614 25.479 27.0927 24.7563 25.7628 24.7563C23.4098 24.7563 20.3748 26.9933 18.9425 30.8479C18.9766 30.8823 18.9766 30.8823 18.9766 30.8823C18.9766 30.8823 21.0909 30.366 21.3296 30.2972C21.4319 30.2628 21.6365 30.2628 21.7388 30.2972C21.7729 30.2972 21.7729 30.2972 21.807 30.3316C21.8752 30.366 21.9093 30.4005 21.9434 30.4693C22.0798 30.6758 22.0116 30.8823 21.9775 31.0199L21.9093 31.192L20.9886 33.2914L22.2162 35.4251C22.3526 35.666 22.3526 35.907 22.1821 36.079C22.1139 36.1823 21.9775 36.2855 21.6706 36.2511L19.2835 35.9758L18.3628 37.0771C18.4992 37.3524 18.6697 37.6277 18.9084 37.8686C20.1019 39.0044 22.9324 39.555 25.7287 39.555C28.5591 39.555 31.4236 38.9699 32.583 37.8686C33.1286 37.2836 33.4356 36.5953 33.4356 35.7693C33.4356 35.7005 33.4356 35.6316 33.4356 35.5628L31.3213 33.7388L27.9793 34.6336C27.7747 34.7024 27.5019 34.5647 27.3314 34.3238C27.195 34.1173 27.1268 33.9108 27.2291 33.7388C27.5019 33.0505 28.5591 30.5381 28.5591 30.5381C28.5591 30.5381 27.2291 28.5076 26.6494 27.5784C26.5812 27.4407 26.6153 27.131 26.7176 26.9589C26.854 26.7524 27.0927 26.6492 27.3314 26.6492C28.0134 26.6836 29.2411 26.7524 30.0254 26.8212ZM29.5139 29.5745C29.8549 30.0907 30.0595 30.366 29.9231 30.7102L29.0024 32.9128C29.0024 32.9128 31.1167 32.3277 31.3554 32.2589C31.6282 32.2589 31.7305 32.2933 31.7987 32.3621L31.9351 32.4998C32.1056 32.6375 32.8217 33.2914 33.265 33.6699C33.4697 33.842 33.6061 33.9797 33.6061 33.9797C33.6061 33.9797 33.7084 32.018 33.7084 31.7427C33.7084 31.7083 33.7084 31.6394 33.7425 31.605C33.7425 31.4329 33.8107 31.2264 34.2199 30.9855L34.4927 30.8479L36.1296 29.8498L34.0153 29.0238C33.913 28.9894 33.8107 28.9206 33.7425 28.8173C33.7084 28.8173 33.7084 28.7829 33.7084 28.7485C33.7084 28.7141 33.6743 28.6797 33.6743 28.6453V28.6108V28.5764C33.6743 28.542 33.6743 28.542 33.6402 28.5076V28.4732C33.6402 28.4732 33.6402 28.4732 33.6402 28.4388V28.4044L33.0945 26.1673L32.5489 26.7868L31.5941 27.8881C31.4577 28.0602 31.3213 28.129 31.219 28.1634C31.1508 28.1979 31.0826 28.1979 31.0144 28.1979C30.9803 28.1979 30.9121 28.1979 30.878 28.1979L28.5591 28.0258C28.6273 28.1979 29.4457 29.4712 29.5139 29.5745ZM29.889 18.768C29.889 16.4621 28.0475 14.5693 25.7287 14.5693C23.4098 14.5693 21.6024 16.4621 21.6024 18.768C21.6024 21.0738 23.478 22.9323 25.7628 22.9323C28.0475 22.9323 29.889 21.0738 29.889 18.768Z" fill="white"/>
</g>
<defs>
<clipPath id="clip0">
<rect width="24.8939" height="28.9091" fill="white" transform="translate(13.6515 12.8485)"/>
</clipPath>
</defs>
</svg>
