<svg width="53" height="53" viewBox="0 0 53 53" fill="none" xmlns="http://www.w3.org/2000/svg">
<circle cx="26.5" cy="26.5" r="26.5" fill="#F47D31"/>
<g clip-path="url(#clip0)">
<path d="M38.5167 14.8424C37.9974 14.3252 37.1319 14.3252 36.6126 14.8424C36.0933 15.3596 36.0933 16.2216 36.6126 16.7388C39.2092 19.3248 40.6286 22.7383 40.6286 26.4277C40.6286 30.0826 39.2092 33.5305 36.6126 36.1165C36.0933 36.6337 36.0933 37.4957 36.6126 38.0129C36.8896 38.2888 37.2358 38.3922 37.582 38.3922C37.9282 38.3922 38.2744 38.2543 38.5514 38.0129C41.6672 34.9098 43.3636 30.8066 43.3636 26.4277C43.329 22.0487 41.6326 17.9111 38.5167 14.8424Z" fill="white"/>
<path d="M13.1398 26.4277C13.1398 22.7728 14.5593 19.3248 17.1558 16.7388C17.6751 16.2216 17.6751 15.3596 17.1558 14.8424C16.6365 14.3252 15.771 14.3252 15.2517 14.8424C12.1358 17.9111 10.4394 22.0487 10.4394 26.4277C10.4394 30.8066 12.1358 34.9098 15.2517 38.0129C15.5286 38.2888 15.8748 38.3922 16.2211 38.3922C16.5673 38.3922 16.9134 38.2543 17.1904 38.0129C17.7097 37.4957 17.7097 36.6337 17.1904 36.1165C14.5593 33.5305 13.1398 30.0826 13.1398 26.4277Z" fill="white"/>
<path d="M35.1239 18.2215C34.6046 17.7043 33.7391 17.7043 33.2198 18.2215C32.7005 18.7386 32.7005 19.6007 33.2198 20.1179C34.9162 21.8074 35.8509 24.0486 35.8509 26.4277C35.8509 28.8068 34.9162 31.048 33.2198 32.703C32.7005 33.2202 32.7005 34.0822 33.2198 34.5994C33.4967 34.8752 33.8429 34.9787 34.1891 34.9787C34.5354 34.9787 34.8816 34.8408 35.1585 34.5994C37.3396 32.4272 38.5513 29.4964 38.5513 26.3932C38.5167 23.3245 37.305 20.3937 35.1239 18.2215Z" fill="white"/>
<path d="M17.9175 26.4277C17.9175 24.0486 18.8522 21.8074 20.5486 20.1179C21.068 19.6007 21.068 18.7386 20.5486 18.2215C20.0294 17.7043 19.1638 17.7043 18.6445 18.2215C16.4634 20.3937 15.2517 23.3245 15.2517 26.4277C15.2517 29.4964 16.4981 32.4962 18.6792 34.6339C18.9561 34.8753 19.2677 35.0132 19.6139 35.0132C19.9601 35.0132 20.3063 34.8753 20.5833 34.5994C21.1026 34.0822 21.1026 33.2202 20.5833 32.703C18.8869 31.0825 17.9175 28.7723 17.9175 26.4277Z" fill="white"/>
<path d="M31.7657 21.6005C31.2464 21.0833 30.3809 21.0488 29.8616 21.6005C29.3423 22.1177 29.3077 22.9797 29.8616 23.4969C30.6579 24.2899 31.0733 25.3243 31.0733 26.4277C31.0733 27.5311 30.6579 28.5655 29.8616 29.3585C29.3423 29.8757 29.3423 30.7377 29.8616 31.2549C30.1386 31.4963 30.4502 31.6342 30.7964 31.6342C31.1426 31.6342 31.4888 31.4963 31.7657 31.2204C33.0467 29.9102 33.7738 28.2207 33.7738 26.3932C33.7391 24.6003 33.0467 22.9108 31.7657 21.6005Z" fill="white"/>
<path d="M23.9415 21.6006C23.4221 21.0833 22.5566 21.0833 22.0373 21.6006C20.7217 22.9108 20.0293 24.6003 20.0293 26.4277C20.0293 28.2552 20.7563 29.9792 22.0373 31.2549C22.3143 31.5308 22.6605 31.6342 23.0067 31.6342C23.3529 31.6342 23.6991 31.4963 23.9761 31.2549C24.4954 30.7377 24.4954 29.8757 23.9761 29.3585C23.1452 28.5655 22.7297 27.5311 22.7297 26.4277C22.7297 25.3244 23.1798 24.29 23.9415 23.4969C24.4608 22.9797 24.4608 22.1177 23.9415 21.6006Z" fill="white"/>
<path d="M26.8842 28.4619C28.0123 28.4619 28.9268 27.5511 28.9268 26.4276C28.9268 25.3041 28.0123 24.3933 26.8842 24.3933C25.7561 24.3933 24.8416 25.3041 24.8416 26.4276C24.8416 27.5511 25.7561 28.4619 26.8842 28.4619Z" fill="white"/>
</g>
<defs>
<clipPath id="clip0">
<rect width="32.9242" height="24.0909" fill="white" transform="translate(10.4394 14.4545)"/>
</clipPath>
</defs>
</svg>
