<svg width="106" height="38" viewBox="0 0 106 38" fill="none" xmlns="http://www.w3.org/2000/svg">
<mask id="path-1-inside-1" fill="white">
<path d="M32.8889 33.8831C32.8889 32.425 32.1091 31.0625 30.8527 30.3277L30.3234 30.0182C31.4118 29.9446 32.2778 29.0418 32.2778 27.9318V27.8424C32.2778 26.6846 31.3385 25.7419 30.1835 25.7419C29.8602 25.7419 29.5357 25.8185 29.2467 25.9638L28.6875 26.2445L26.9208 24.8269C26.3592 24.3764 25.9216 23.7849 25.6552 23.1163L25.2421 22.0811C25.0447 21.5852 24.9444 21.063 24.9444 20.5292V20.0916L27.4916 19.4529L26.4429 14.1948C26.2211 13.0812 25.4095 12.187 24.3242 11.8603L20.0556 10.5763V9.12613C20.8103 8.35203 21.2778 7.29477 21.2778 6.12965V4.29032C21.2778 1.92452 19.3583 0 17 0C14.6417 0 12.7222 1.92452 12.7222 4.29032V6.12903C12.7222 7.29477 13.1897 8.35203 13.9444 9.12552V10.5756L9.67583 11.8603C8.59111 12.1864 7.77894 13.0812 7.55711 14.1948L6.50844 19.4529L9.05556 20.0916V20.5292C9.05556 21.063 8.95533 21.5852 8.75795 22.0805L8.34483 23.1156C8.07778 23.7843 7.64083 24.3758 7.07922 24.8263L5.3125 26.2439L4.75333 25.9632C4.46367 25.8185 4.13978 25.7419 3.8165 25.7419C2.6615 25.7419 1.72222 26.6846 1.72222 27.8424V27.9318C1.72222 29.0418 2.58817 29.9446 3.67656 30.0182L3.14733 30.3277C1.89089 31.0625 1.11111 32.425 1.11111 33.8831C1.11111 35.009 1.56456 36.0301 2.29789 36.7742H0.5V38H5.21594H14.5733H19.4261H28.7834H33.5V36.7742H31.7021C32.4354 36.0301 32.8889 35.009 32.8889 33.8831ZM21.4886 32.6316L20.2774 31.9028L20.6667 31.5118V30.7193C20.6667 30.3405 20.9741 30.0323 21.3517 30.0323C21.8541 30.0323 22.3454 29.8282 22.7004 29.4721L23.7748 28.3946C23.9025 28.2671 24.0791 28.1935 24.2594 28.1935C24.6371 28.1935 24.9444 28.5018 24.9444 28.8806C24.9444 29.0645 24.8736 29.2367 24.744 29.3666L21.4886 32.6316ZM9.256 29.3666C9.12644 29.2367 9.05556 29.0645 9.05556 28.8806C9.05556 28.5018 9.36294 28.1935 9.74061 28.1935C9.92089 28.1935 10.0975 28.2671 10.2252 28.3946L11.2996 29.4721C11.6546 29.8282 12.1459 30.0323 12.6483 30.0323C13.0259 30.0323 13.3333 30.3405 13.3333 30.7193V31.5118L14.3026 32.4839L13.3333 33.4559L9.256 29.3666ZM15.1667 31.6172L14.5556 31.0043V30.7193C14.5556 29.6645 13.7 28.8065 12.6483 28.8065C12.468 28.8065 12.2914 28.7329 12.1637 28.6054L11.0893 27.5279C10.9482 27.3864 10.7813 27.276 10.6047 27.1859C10.8644 27.0094 11.0979 26.8004 11.2959 26.5577C12.2779 27.1032 14.547 28.1935 17 28.1935C19.453 28.1935 21.7221 27.1032 22.7041 26.5583C22.9021 26.801 23.1356 27.0094 23.3953 27.1859C23.2187 27.276 23.0518 27.3864 22.9107 27.5279L21.8363 28.6054C21.7086 28.7329 21.532 28.8065 21.3517 28.8065C20.3 28.8065 19.4444 29.6645 19.4444 30.7193V31.0043L19.1969 31.2526L16.9053 29.8735L15.1667 31.6172ZM12.7222 20.927V19.4149L13.0962 19.2648C16.5918 17.8625 19.5062 15.4574 21.5644 12.3102L23.4301 12.8716L22.8496 14.3272C21.8852 16.7457 20.3489 18.9393 18.4068 20.6714C16.8539 22.0553 15.0811 23.1279 13.1488 23.8542L12.2999 24.1527C12.5725 23.1009 12.7222 22.0235 12.7222 20.927ZM22.1174 25.4815C21.2454 25.9644 19.1713 26.9677 17 26.9677C14.9375 26.9677 12.9532 26.0551 12.0146 25.5519L13.5656 25.0058C15.6513 24.2219 17.5531 23.0715 19.2183 21.5871C19.9639 20.9221 20.6514 20.1915 21.2772 19.4113V20.9264C21.2778 22.4911 21.5662 24.0203 22.1174 25.4815ZM24.1072 22.5358L24.5203 23.571C24.8656 24.4365 25.4315 25.2014 26.1575 25.783L28.5353 27.691L29.7942 27.0597C29.914 26.9996 30.0491 26.9677 30.1835 26.9677C30.6644 26.9677 31.0556 27.36 31.0556 27.8424V27.9318C31.0556 28.4142 30.6644 28.8065 30.1835 28.8065H28.7694L24.2246 26.2745C23.8206 26.0496 23.5028 25.688 23.3311 25.2571C22.7799 23.8732 22.5 22.4163 22.5 20.927V20.7045L23.7222 20.398V20.5292C23.7222 21.2199 23.8518 21.8947 24.1072 22.5358ZM26.064 18.5471L22.5 19.4407V17.6939C23.0806 16.7696 23.5804 15.7951 23.985 14.782L24.5564 13.3496C24.9017 13.6163 25.1565 13.9907 25.2451 14.4351L26.064 18.5471ZM18.8333 10.7614C18.4355 11.104 17.6679 11.6452 17 11.6452C16.3321 11.6452 15.5645 11.104 15.1667 10.7614V9.99952C15.7234 10.2655 16.3437 10.4194 17 10.4194C17.6563 10.4194 18.2766 10.2655 18.8333 9.99952V10.7614ZM13.9444 4.29032C13.9444 2.60055 15.3152 1.22581 17 1.22581C18.6848 1.22581 20.0556 2.60055 20.0556 4.29032V6.12903C20.0556 7.81881 18.6848 9.19355 17 9.19355C15.3152 9.19355 13.9444 7.81881 13.9444 6.12903V4.29032ZM8.7555 14.4357C8.88872 13.7676 9.37639 13.2307 10.0266 13.0352L14.4009 11.7187C14.8801 12.1287 15.8969 12.871 17 12.871C18.1031 12.871 19.1199 12.1287 19.5991 11.7187L20.3385 11.9412C18.4465 14.7042 15.834 16.8248 12.7222 18.0911V15.9355H11.5V19.4407L7.936 18.5471L8.7555 14.4357ZM2.94444 27.9318V27.8424C2.94444 27.36 3.33556 26.9677 3.8165 26.9677C3.95156 26.9677 4.086 26.9996 4.207 27.0603L5.46589 27.6916L7.84372 25.7836C8.56972 25.2014 9.135 24.4365 9.48089 23.5716L9.894 22.5358C10.1494 21.8954 10.279 21.2199 10.279 20.5292V20.398L11.5012 20.7045V20.927C11.5012 22.4163 11.2213 23.8732 10.6707 25.2565C10.4984 25.688 10.1806 26.049 9.77667 26.2745L5.23061 28.8065H3.8165C3.33556 28.8065 2.94444 28.4142 2.94444 27.9318ZM5.21594 36.7742C3.62644 36.7742 2.33333 35.4773 2.33333 33.8831C2.33333 32.859 2.88089 31.9022 3.76333 31.3862L7.84494 28.9983C7.87305 29.4647 8.06006 29.8999 8.39189 30.2333L13.8088 35.6661C14.2225 36.081 14.6759 36.4383 15.1569 36.7472C14.9632 36.7644 14.7688 36.7742 14.5733 36.7742H5.21594ZM19.4267 36.7742C17.6313 36.7742 15.9428 36.073 14.6735 34.7994L14.1974 34.3226L17.0947 31.4168L20.8867 33.6986L22.7964 34.8478L23.4252 33.7967L22.5684 33.2813L25.6075 30.2333C25.9399 29.9005 26.1263 29.4647 26.1544 28.9983L30.2361 31.3862C31.1179 31.9022 31.6661 32.859 31.6661 33.8831C31.6667 35.4773 30.3736 36.7742 28.7841 36.7742H19.4267Z"/>
</mask>
<path d="M32.8889 33.8831C32.8889 32.425 32.1091 31.0625 30.8527 30.3277L30.3234 30.0182C31.4118 29.9446 32.2778 29.0418 32.2778 27.9318V27.8424C32.2778 26.6846 31.3385 25.7419 30.1835 25.7419C29.8602 25.7419 29.5357 25.8185 29.2467 25.9638L28.6875 26.2445L26.9208 24.8269C26.3592 24.3764 25.9216 23.7849 25.6552 23.1163L25.2421 22.0811C25.0447 21.5852 24.9444 21.063 24.9444 20.5292V20.0916L27.4916 19.4529L26.4429 14.1948C26.2211 13.0812 25.4095 12.187 24.3242 11.8603L20.0556 10.5763V9.12613C20.8103 8.35203 21.2778 7.29477 21.2778 6.12965V4.29032C21.2778 1.92452 19.3583 0 17 0C14.6417 0 12.7222 1.92452 12.7222 4.29032V6.12903C12.7222 7.29477 13.1897 8.35203 13.9444 9.12552V10.5756L9.67583 11.8603C8.59111 12.1864 7.77894 13.0812 7.55711 14.1948L6.50844 19.4529L9.05556 20.0916V20.5292C9.05556 21.063 8.95533 21.5852 8.75795 22.0805L8.34483 23.1156C8.07778 23.7843 7.64083 24.3758 7.07922 24.8263L5.3125 26.2439L4.75333 25.9632C4.46367 25.8185 4.13978 25.7419 3.8165 25.7419C2.6615 25.7419 1.72222 26.6846 1.72222 27.8424V27.9318C1.72222 29.0418 2.58817 29.9446 3.67656 30.0182L3.14733 30.3277C1.89089 31.0625 1.11111 32.425 1.11111 33.8831C1.11111 35.009 1.56456 36.0301 2.29789 36.7742H0.5V38H5.21594H14.5733H19.4261H28.7834H33.5V36.7742H31.7021C32.4354 36.0301 32.8889 35.009 32.8889 33.8831ZM21.4886 32.6316L20.2774 31.9028L20.6667 31.5118V30.7193C20.6667 30.3405 20.9741 30.0323 21.3517 30.0323C21.8541 30.0323 22.3454 29.8282 22.7004 29.4721L23.7748 28.3946C23.9025 28.2671 24.0791 28.1935 24.2594 28.1935C24.6371 28.1935 24.9444 28.5018 24.9444 28.8806C24.9444 29.0645 24.8736 29.2367 24.744 29.3666L21.4886 32.6316ZM9.256 29.3666C9.12644 29.2367 9.05556 29.0645 9.05556 28.8806C9.05556 28.5018 9.36294 28.1935 9.74061 28.1935C9.92089 28.1935 10.0975 28.2671 10.2252 28.3946L11.2996 29.4721C11.6546 29.8282 12.1459 30.0323 12.6483 30.0323C13.0259 30.0323 13.3333 30.3405 13.3333 30.7193V31.5118L14.3026 32.4839L13.3333 33.4559L9.256 29.3666ZM15.1667 31.6172L14.5556 31.0043V30.7193C14.5556 29.6645 13.7 28.8065 12.6483 28.8065C12.468 28.8065 12.2914 28.7329 12.1637 28.6054L11.0893 27.5279C10.9482 27.3864 10.7813 27.276 10.6047 27.1859C10.8644 27.0094 11.0979 26.8004 11.2959 26.5577C12.2779 27.1032 14.547 28.1935 17 28.1935C19.453 28.1935 21.7221 27.1032 22.7041 26.5583C22.9021 26.801 23.1356 27.0094 23.3953 27.1859C23.2187 27.276 23.0518 27.3864 22.9107 27.5279L21.8363 28.6054C21.7086 28.7329 21.532 28.8065 21.3517 28.8065C20.3 28.8065 19.4444 29.6645 19.4444 30.7193V31.0043L19.1969 31.2526L16.9053 29.8735L15.1667 31.6172ZM12.7222 20.927V19.4149L13.0962 19.2648C16.5918 17.8625 19.5062 15.4574 21.5644 12.3102L23.4301 12.8716L22.8496 14.3272C21.8852 16.7457 20.3489 18.9393 18.4068 20.6714C16.8539 22.0553 15.0811 23.1279 13.1488 23.8542L12.2999 24.1527C12.5725 23.1009 12.7222 22.0235 12.7222 20.927ZM22.1174 25.4815C21.2454 25.9644 19.1713 26.9677 17 26.9677C14.9375 26.9677 12.9532 26.0551 12.0146 25.5519L13.5656 25.0058C15.6513 24.2219 17.5531 23.0715 19.2183 21.5871C19.9639 20.9221 20.6514 20.1915 21.2772 19.4113V20.9264C21.2778 22.4911 21.5662 24.0203 22.1174 25.4815ZM24.1072 22.5358L24.5203 23.571C24.8656 24.4365 25.4315 25.2014 26.1575 25.783L28.5353 27.691L29.7942 27.0597C29.914 26.9996 30.0491 26.9677 30.1835 26.9677C30.6644 26.9677 31.0556 27.36 31.0556 27.8424V27.9318C31.0556 28.4142 30.6644 28.8065 30.1835 28.8065H28.7694L24.2246 26.2745C23.8206 26.0496 23.5028 25.688 23.3311 25.2571C22.7799 23.8732 22.5 22.4163 22.5 20.927V20.7045L23.7222 20.398V20.5292C23.7222 21.2199 23.8518 21.8947 24.1072 22.5358ZM26.064 18.5471L22.5 19.4407V17.6939C23.0806 16.7696 23.5804 15.7951 23.985 14.782L24.5564 13.3496C24.9017 13.6163 25.1565 13.9907 25.2451 14.4351L26.064 18.5471ZM18.8333 10.7614C18.4355 11.104 17.6679 11.6452 17 11.6452C16.3321 11.6452 15.5645 11.104 15.1667 10.7614V9.99952C15.7234 10.2655 16.3437 10.4194 17 10.4194C17.6563 10.4194 18.2766 10.2655 18.8333 9.99952V10.7614ZM13.9444 4.29032C13.9444 2.60055 15.3152 1.22581 17 1.22581C18.6848 1.22581 20.0556 2.60055 20.0556 4.29032V6.12903C20.0556 7.81881 18.6848 9.19355 17 9.19355C15.3152 9.19355 13.9444 7.81881 13.9444 6.12903V4.29032ZM8.7555 14.4357C8.88872 13.7676 9.37639 13.2307 10.0266 13.0352L14.4009 11.7187C14.8801 12.1287 15.8969 12.871 17 12.871C18.1031 12.871 19.1199 12.1287 19.5991 11.7187L20.3385 11.9412C18.4465 14.7042 15.834 16.8248 12.7222 18.0911V15.9355H11.5V19.4407L7.936 18.5471L8.7555 14.4357ZM2.94444 27.9318V27.8424C2.94444 27.36 3.33556 26.9677 3.8165 26.9677C3.95156 26.9677 4.086 26.9996 4.207 27.0603L5.46589 27.6916L7.84372 25.7836C8.56972 25.2014 9.135 24.4365 9.48089 23.5716L9.894 22.5358C10.1494 21.8954 10.279 21.2199 10.279 20.5292V20.398L11.5012 20.7045V20.927C11.5012 22.4163 11.2213 23.8732 10.6707 25.2565C10.4984 25.688 10.1806 26.049 9.77667 26.2745L5.23061 28.8065H3.8165C3.33556 28.8065 2.94444 28.4142 2.94444 27.9318ZM5.21594 36.7742C3.62644 36.7742 2.33333 35.4773 2.33333 33.8831C2.33333 32.859 2.88089 31.9022 3.76333 31.3862L7.84494 28.9983C7.87305 29.4647 8.06006 29.8999 8.39189 30.2333L13.8088 35.6661C14.2225 36.081 14.6759 36.4383 15.1569 36.7472C14.9632 36.7644 14.7688 36.7742 14.5733 36.7742H5.21594ZM19.4267 36.7742C17.6313 36.7742 15.9428 36.073 14.6735 34.7994L14.1974 34.3226L17.0947 31.4168L20.8867 33.6986L22.7964 34.8478L23.4252 33.7967L22.5684 33.2813L25.6075 30.2333C25.9399 29.9005 26.1263 29.4647 26.1544 28.9983L30.2361 31.3862C31.1179 31.9022 31.6661 32.859 31.6661 33.8831C31.6667 35.4773 30.3736 36.7742 28.7841 36.7742H19.4267Z" fill="#A8C4CE" stroke="#A8C4CE" stroke-width="8" mask="url(#path-1-inside-1)"/>
<path d="M46.8356 27.62C46.6916 27.62 46.5716 27.58 46.4756 27.5C46.3796 27.436 46.3316 27.356 46.3316 27.26C46.3316 27.164 46.3716 27.068 46.4516 26.972C46.5476 26.876 46.6836 26.804 46.8596 26.756C47.4356 26.596 47.8276 26.42 48.0356 26.228C48.2596 26.036 48.3716 25.692 48.3716 25.196V14.276C48.3716 13.748 48.2676 13.38 48.0596 13.172C47.8676 12.948 47.4756 12.772 46.8836 12.644C46.5156 12.564 46.3316 12.396 46.3316 12.14C46.3316 12.044 46.3796 11.964 46.4756 11.9C46.5716 11.82 46.6996 11.78 46.8596 11.78C47.4676 11.78 48.0836 11.804 48.7076 11.852C49.5396 11.884 50.1236 11.9 50.4596 11.9C52.4276 11.9 54.1556 11.876 55.6436 11.828C56.1396 11.828 56.5636 11.804 56.9156 11.756C57.2676 11.692 57.4676 11.66 57.5156 11.66C57.6436 11.66 57.7716 11.7 57.8996 11.78C58.0276 11.844 58.0996 11.956 58.1156 12.116C58.1476 12.42 58.2116 12.876 58.3076 13.484C58.4356 14.348 58.4996 14.932 58.4996 15.236C58.4996 15.38 58.4676 15.492 58.4036 15.572C58.3396 15.652 58.2676 15.692 58.1876 15.692C57.9796 15.692 57.8276 15.564 57.7316 15.308C57.6836 15.196 57.5956 14.996 57.4676 14.708C57.3556 14.42 57.2516 14.188 57.1556 14.012C57.0756 13.836 56.9796 13.692 56.8676 13.58C56.3716 13.084 55.7956 12.836 55.1396 12.836H53.3396C52.9876 12.836 52.6836 12.932 52.4276 13.124C52.1716 13.316 52.0436 13.572 52.0436 13.892V18.428C52.0436 18.812 52.2436 19.004 52.6436 19.004H54.7556C55.1396 19.004 55.4196 18.892 55.5956 18.668C55.7876 18.428 55.9716 18.06 56.1476 17.564C56.2436 17.26 56.4036 17.108 56.6276 17.108C56.7076 17.108 56.7796 17.156 56.8436 17.252C56.9076 17.348 56.9316 17.476 56.9156 17.636C56.8516 18.436 56.8196 19.084 56.8196 19.58C56.8196 20.252 56.8436 20.9 56.8916 21.524L56.9156 21.716C56.9156 22.004 56.8276 22.148 56.6516 22.148C56.5396 22.148 56.4276 22.092 56.3156 21.98C56.2196 21.868 56.1476 21.724 56.0996 21.548C55.9556 21.036 55.7876 20.66 55.5956 20.42C55.4196 20.18 55.1796 20.06 54.8756 20.06H52.6436C52.2436 20.06 52.0436 20.244 52.0436 20.612V25.172C52.0436 25.636 52.1476 25.972 52.3556 26.18C52.5636 26.372 52.8836 26.468 53.3156 26.468H55.3796C56.1476 26.468 56.7556 26.292 57.2036 25.94C57.6516 25.588 58.1076 24.948 58.5716 24.02C58.6836 23.828 58.8356 23.732 59.0276 23.732C59.1076 23.732 59.1636 23.78 59.1956 23.876C59.2436 23.956 59.2676 24.06 59.2676 24.188C59.2676 24.476 59.2196 24.82 59.1236 25.22C59.0276 25.604 58.8836 26.092 58.6916 26.684C58.6116 26.908 58.5476 27.108 58.4996 27.284C58.4676 27.38 58.3956 27.452 58.2836 27.5C58.1876 27.564 58.0836 27.596 57.9716 27.596C57.3156 27.596 56.6836 27.588 56.0756 27.572C52.7156 27.524 50.7396 27.5 50.1476 27.5C49.6196 27.5 49.0676 27.524 48.4916 27.572C47.7236 27.604 47.1716 27.62 46.8356 27.62ZM64.4435 27.836C63.4035 27.836 62.6115 27.572 62.0675 27.044C61.5395 26.516 61.2755 25.756 61.2755 24.764V19.244C61.2755 19.1 61.2195 18.996 61.1075 18.932C60.9955 18.868 60.8035 18.828 60.5315 18.812H60.2195C60.1235 18.812 60.0355 18.724 59.9555 18.548C59.8755 18.372 59.8355 18.204 59.8355 18.044C59.8355 17.932 59.8835 17.852 59.9795 17.804C60.7795 17.516 61.9475 16.7 63.4835 15.356C63.5155 15.324 63.5715 15.284 63.6515 15.236C63.7315 15.172 63.8035 15.124 63.8675 15.092C63.9315 15.06 64.0035 15.044 64.0835 15.044C64.2435 15.044 64.3475 15.076 64.3955 15.14C64.4435 15.204 64.4595 15.332 64.4435 15.524L64.2995 16.94V17.036C64.2995 17.308 64.4915 17.444 64.8755 17.444H67.7315C67.7795 17.444 67.8275 17.5 67.8755 17.612C67.9235 17.724 67.9475 17.828 67.9475 17.924C67.9475 18.164 67.9155 18.388 67.8515 18.596C67.7875 18.788 67.7155 18.884 67.6355 18.884H65.4035C65.0355 18.884 64.7795 18.932 64.6355 19.028C64.5075 19.108 64.4435 19.26 64.4435 19.484V24.02C64.4435 24.74 64.5795 25.284 64.8515 25.652C65.1235 26.02 65.4995 26.204 65.9795 26.204C66.3475 26.204 66.6275 26.18 66.8195 26.132C67.0275 26.068 67.1955 26.004 67.3235 25.94C67.4675 25.876 67.5555 25.836 67.5875 25.82C67.6515 25.788 67.6995 25.772 67.7315 25.772C67.8115 25.772 67.8755 25.82 67.9235 25.916C67.9715 25.996 67.9955 26.108 67.9955 26.252C67.9955 26.364 67.8115 26.556 67.4435 26.828C67.0915 27.084 66.6435 27.316 66.0995 27.524C65.5555 27.732 65.0035 27.836 64.4435 27.836ZM69.0755 27.572C68.9795 27.572 68.8915 27.548 68.8115 27.5C68.7315 27.436 68.6915 27.356 68.6915 27.26C68.6915 27.02 68.8355 26.86 69.1235 26.78C69.5555 26.684 69.8515 26.58 70.0115 26.468C70.1715 26.34 70.2515 26.148 70.2515 25.892V20.708C70.2515 20.18 70.1715 19.796 70.0115 19.556C69.8515 19.316 69.5875 19.172 69.2195 19.124C69.1235 19.108 69.0515 19.06 69.0035 18.98C68.9555 18.9 68.9315 18.804 68.9315 18.692C68.9315 18.596 68.9555 18.508 69.0035 18.428C69.0675 18.348 69.1315 18.3 69.1955 18.284C69.9155 18.156 70.5475 17.98 71.0915 17.756C71.6515 17.532 72.2595 17.26 72.9155 16.94C73.1395 16.812 73.2995 16.748 73.3955 16.748C73.4915 16.748 73.5635 16.78 73.6115 16.844C73.6755 16.892 73.7075 16.956 73.7075 17.036L73.6115 17.924C73.4675 19.14 73.3955 20.02 73.3955 20.564V25.868C73.3955 26.092 73.4755 26.268 73.6355 26.396C73.7955 26.524 74.0995 26.652 74.5475 26.78C74.6915 26.828 74.7955 26.884 74.8595 26.948C74.9395 27.012 74.9795 27.108 74.9795 27.236C74.9795 27.444 74.8595 27.548 74.6195 27.548C74.2835 27.548 73.7955 27.532 73.1555 27.5C72.5155 27.468 72.0595 27.452 71.7875 27.452C71.5155 27.452 71.0915 27.468 70.5155 27.5C70.0355 27.548 69.5555 27.572 69.0755 27.572ZM71.7155 15.668C71.2035 15.668 70.7635 15.484 70.3955 15.116C70.0275 14.748 69.8435 14.308 69.8435 13.796C69.8435 13.252 70.0275 12.796 70.3955 12.428C70.7635 12.06 71.2035 11.876 71.7155 11.876C72.2595 11.876 72.7155 12.06 73.0835 12.428C73.4675 12.796 73.6595 13.252 73.6595 13.796C73.6595 14.308 73.4675 14.748 73.0835 15.116C72.7155 15.484 72.2595 15.668 71.7155 15.668ZM78.3616 27.836C77.7216 27.836 77.1616 27.62 76.6816 27.188C76.2016 26.74 75.9616 26.212 75.9616 25.604C75.9616 25.06 76.1216 24.612 76.4416 24.26C76.7776 23.892 77.2976 23.556 78.0016 23.252L80.1376 22.316C80.4576 22.172 80.6496 22.044 80.7136 21.932C80.7936 21.82 80.8336 21.612 80.8336 21.308L80.8576 19.94C80.8736 19.476 80.7936 19.116 80.6176 18.86C80.4416 18.604 80.1776 18.476 79.8256 18.476C79.6336 18.476 79.4256 18.524 79.2016 18.62C78.9936 18.7 78.8336 18.796 78.7216 18.908C78.6256 19.02 78.5776 19.188 78.5776 19.412C78.5776 19.524 78.5856 19.644 78.6016 19.772C78.6176 19.884 78.6256 19.996 78.6256 20.108C78.6256 20.268 78.3536 20.468 77.8096 20.708C77.2816 20.948 76.8416 21.068 76.4896 21.068C76.3616 21.068 76.2576 21.02 76.1776 20.924C76.0976 20.828 76.0576 20.708 76.0576 20.564C76.0576 20.308 76.1456 20.06 76.3216 19.82C76.4976 19.58 76.7856 19.292 77.1856 18.956C77.8096 18.444 78.5136 18.012 79.2976 17.66C80.0816 17.308 80.7376 17.132 81.2656 17.132C82.1136 17.132 82.7936 17.412 83.3056 17.972C83.8176 18.516 84.0656 19.244 84.0496 20.156L83.9296 25.004C83.9136 25.372 83.9776 25.684 84.1216 25.94C84.2656 26.196 84.4416 26.324 84.6496 26.324C84.9536 26.324 85.2176 26.22 85.4416 26.012C85.4896 25.964 85.5376 25.94 85.5856 25.94C85.6656 25.94 85.7296 25.972 85.7776 26.036C85.8416 26.084 85.8736 26.14 85.8736 26.204C85.8736 26.412 85.7296 26.66 85.4416 26.948C84.8496 27.54 84.1776 27.836 83.4256 27.836C82.9616 27.836 82.5536 27.724 82.2016 27.5C81.8496 27.292 81.5136 26.948 81.1936 26.468H81.1456C80.6176 26.964 80.1376 27.316 79.7056 27.524C79.2896 27.732 78.8416 27.836 78.3616 27.836ZM79.8016 26.276C80.1056 26.276 80.3616 26.156 80.5696 25.916C80.6816 25.74 80.7376 25.532 80.7376 25.292L80.8096 23.564C80.8096 23.308 80.7296 23.18 80.5696 23.18C80.4896 23.18 80.3936 23.212 80.2816 23.276C79.7696 23.516 79.4096 23.756 79.2016 23.996C79.0096 24.236 78.9136 24.596 78.9136 25.076C78.9136 25.492 79.0016 25.796 79.1776 25.988C79.3536 26.18 79.5616 26.276 79.8016 26.276ZM86.7731 27.572C86.6611 27.572 86.5491 27.54 86.4371 27.476C86.3411 27.412 86.2931 27.332 86.2931 27.236C86.2931 27.044 86.4771 26.884 86.8451 26.756C87.1651 26.66 87.3971 26.556 87.5411 26.444C87.6851 26.332 87.7571 26.132 87.7571 25.844V20.348C87.7571 19.532 87.5091 19.084 87.0131 19.004C86.8371 18.972 86.7491 18.828 86.7491 18.572C86.7491 18.348 86.8291 18.212 86.9891 18.164C88.6051 17.764 89.8051 17.34 90.5891 16.892C90.6211 16.876 90.6611 16.852 90.7091 16.82C90.7731 16.788 90.8291 16.772 90.8771 16.772C91.0211 16.772 91.0931 16.86 91.0931 17.036L91.0451 17.564C91.0291 17.676 91.0131 17.812 90.9971 17.972C90.9811 18.116 90.9731 18.284 90.9731 18.476C90.9731 18.636 90.9891 18.732 91.0211 18.764H91.0691C91.5971 18.252 92.1491 17.852 92.7251 17.564C93.3171 17.276 93.9571 17.132 94.6451 17.132C95.1251 17.132 95.5731 17.308 95.9891 17.66C96.4211 17.996 96.7411 18.436 96.9491 18.98H97.0451C98.0691 17.748 99.2851 17.132 100.693 17.132C101.461 17.132 102.093 17.444 102.589 18.068C103.101 18.692 103.357 19.524 103.357 20.564V25.844C103.357 26.132 103.429 26.332 103.573 26.444C103.717 26.556 103.949 26.66 104.269 26.756C104.589 26.868 104.749 27.028 104.749 27.236C104.749 27.332 104.709 27.412 104.629 27.476C104.549 27.54 104.453 27.572 104.341 27.572C103.861 27.572 103.405 27.548 102.973 27.5C102.461 27.468 102.069 27.452 101.797 27.452C101.525 27.452 101.165 27.468 100.717 27.5C100.365 27.548 99.9491 27.572 99.4691 27.572C99.3571 27.572 99.2611 27.54 99.1811 27.476C99.1011 27.412 99.0611 27.332 99.0611 27.236C99.0611 26.996 99.2211 26.836 99.5411 26.756C99.7651 26.692 99.9251 26.612 100.021 26.516C100.133 26.404 100.189 26.228 100.189 25.988V21.068C100.189 20.492 100.061 20.028 99.8051 19.676C99.5651 19.308 99.2531 19.116 98.8691 19.1C98.3731 19.1 97.9011 19.292 97.4531 19.676C97.2291 19.884 97.1171 20.22 97.1171 20.684V25.844C97.1171 26.148 97.1731 26.356 97.2851 26.468C97.3971 26.58 97.5891 26.676 97.8611 26.756C98.1811 26.836 98.3411 26.996 98.3411 27.236C98.3411 27.332 98.3011 27.412 98.2211 27.476C98.1411 27.54 98.0451 27.572 97.9331 27.572C97.4691 27.572 97.0451 27.548 96.6611 27.5C96.1811 27.468 95.8131 27.452 95.5571 27.452C95.2851 27.452 94.9251 27.468 94.4771 27.5C94.1251 27.548 93.7091 27.572 93.2291 27.572C93.1331 27.572 93.0451 27.54 92.9651 27.476C92.8851 27.412 92.8451 27.332 92.8451 27.236C92.8451 27.028 92.9971 26.868 93.3011 26.756C93.5411 26.676 93.7091 26.588 93.8051 26.492C93.9171 26.396 93.9731 26.228 93.9731 25.988V21.068C93.9731 20.476 93.8531 20.012 93.6131 19.676C93.3731 19.324 93.0531 19.14 92.6531 19.124C92.1731 19.124 91.6931 19.3 91.2131 19.652C91.0051 19.812 90.9011 20.124 90.9011 20.588V25.844C90.9011 26.116 90.9491 26.316 91.0451 26.444C91.1411 26.572 91.3171 26.676 91.5731 26.756C91.8771 26.868 92.0291 27.028 92.0291 27.236C92.0291 27.332 91.9891 27.412 91.9091 27.476C91.8291 27.54 91.7411 27.572 91.6451 27.572C91.1811 27.572 90.7651 27.548 90.3971 27.5C89.9171 27.468 89.5491 27.452 89.2931 27.452C89.0211 27.452 88.6291 27.468 88.1171 27.5C87.7171 27.548 87.2691 27.572 86.7731 27.572Z" fill="#A8C4CE"/>
</svg>
