<svg width="503" height="79" viewBox="0 0 503 79" fill="none" xmlns="http://www.w3.org/2000/svg">
<g clip-path="url(#clip0)">
<path d="M1.45051 69.788C9.5305 56.6402 16.0672 55.5684 31.7712 42.0935C35.7447 38.685 39.2771 36.0016 45.077 32.9539C50.9364 29.8751 64.6856 26.3343 71.5928 23.509C119.28 4.00386 188.893 6.1629 234.889 4.94756C291.739 3.44528 349.443 0.983263 405.523 0.470712C431.306 0.235423 457.65 1.106 480.95 2.64106C492.294 3.38905 500.363 4.82215 501.677 8.9517C502.874 12.7273 502.069 16.8915 500.901 21.004C499.612 25.5509 492.232 30.7832 491.277 35.1364C489.802 41.8551 477.257 50.8707 463.674 57.7417C439.765 69.8354 430.214 70.6263 396.91 71.6338C336.457 73.4641 277.506 74.1199 217.793 75.2394C190.018 75.7604 160.682 76.5996 132.058 77.9577C100.762 79.4432 72.7851 77.9333 43.2261 77.9366C21.6595 77.9384 -4.38778 79.2916 1.45051 69.788Z" fill="#FFB17E"/>
</g>
<defs>
<clipPath id="clip0">
<rect width="502" height="78.9796" fill="white" transform="translate(0.5 0.0203857)"/>
</clipPath>
</defs>
</svg>
